HIERARCHY
ROOT joint_Root
{
	OFFSET 0.0 0.0 0.0
	CHANNELS 6 Xposition Yposition Zposition Zrotation Xrotation Yrotation 
	JOINT Hips
	{
		OFFSET -0.726466 93.3139 -2.00062
		CHANNELS 6 Xposition Yposition Zposition Zrotation Xrotation Yrotation 
		JOINT Spine
		{
			OFFSET 15.7357 0.0 0.0
			CHANNELS 6 Xposition Yposition Zposition Zrotation Xrotation Yrotation 
			JOINT Chest
			{
				OFFSET 8.98455 -0.406207 0.0
				CHANNELS 6 Xposition Yposition Zposition Zrotation Xrotation Yrotation 
				JOINT Neck
				{
					OFFSET 16.3773 0.0 0.0
					CHANNELS 6 Xposition Yposition Zposition Zrotation Xrotation Yrotation 
					JOINT Head
					{
						OFFSET 6.45672 0.0 0.0
						CHANNELS 6 Xposition Yposition Zposition Zrotation Xrotation Yrotation 
						End Site
						{
							OFFSET 0.0 0.0 0.0
						}
					}
				}
				JOINT Shoulder_L
				{
					OFFSET 12.9942 -0.242716 4.98039
					CHANNELS 6 Xposition Yposition Zposition Zrotation Xrotation Yrotation 
					JOINT UpperArm_L
					{
						OFFSET 5.34809 0.0 0.0
						CHANNELS 6 Xposition Yposition Zposition Zrotation Xrotation Yrotation 
						JOINT LowerArm_L
						{
							OFFSET 24.3286 1.87007e-05 0.0
							CHANNELS 6 Xposition Yposition Zposition Zrotation Xrotation Yrotation 
							JOINT Hand_L
							{
								OFFSET 22.2916 0.0 0.0
								CHANNELS 6 Xposition Yposition Zposition Zrotation Xrotation Yrotation 
								End Site
								{
									OFFSET 0.0 0.0 0.0
								}
							}
						}
					}
				}
				JOINT Shoulder_R
				{
					OFFSET 12.9945 -0.242716 -4.98039
					CHANNELS 6 Xposition Yposition Zposition Zrotation Xrotation Yrotation 
					JOINT UpperArm_R
					{
						OFFSET -5.34813 0.0 0.0
						CHANNELS 6 Xposition Yposition Zposition Zrotation Xrotation Yrotation 
						JOINT LowerArm_R
						{
							OFFSET -24.3289 0.000322201 0.0
							CHANNELS 6 Xposition Yposition Zposition Zrotation Xrotation Yrotation 
							JOINT Hand_R
							{
								OFFSET -22.2915 -0.000108084 0.0
								CHANNELS 6 Xposition Yposition Zposition Zrotation Xrotation Yrotation 
								End Site
								{
									OFFSET 0.0 0.0 0.0
								}
							}
						}
					}
				}
			}
		}
		JOINT UpperLeg_L
		{
			OFFSET -2.19248 -6.46944 0.0
			CHANNELS 6 Xposition Yposition Zposition Zrotation Xrotation Yrotation 
			JOINT LowerLeg_L
			{
				OFFSET 39.0811 0.0 -1.23785e-05
				CHANNELS 6 Xposition Yposition Zposition Zrotation Xrotation Yrotation 
				JOINT Foot_L
				{
					OFFSET 40.9854 0.0 -1.26872e-05
					CHANNELS 6 Xposition Yposition Zposition Zrotation Xrotation Yrotation 
					JOINT Toes_L
					{
						OFFSET 11.7543 0.0 0.0
						CHANNELS 6 Xposition Yposition Zposition Zrotation Xrotation Yrotation 
						End Site
						{
							OFFSET 0.0 0.0 0.0
						}
					}
				}
			}
		}
		JOINT UpperLeg_R
		{
			OFFSET -2.19251 6.46944 0.0
			CHANNELS 6 Xposition Yposition Zposition Zrotation Xrotation Yrotation 
			JOINT LowerLeg_R
			{
				OFFSET -39.0811 -0.00228153 -0.0401928
				CHANNELS 6 Xposition Yposition Zposition Zrotation Xrotation Yrotation 
				JOINT Foot_R
				{
					OFFSET -40.9854 0.0 0.0
					CHANNELS 6 Xposition Yposition Zposition Zrotation Xrotation Yrotation 
					JOINT Toes_R
					{
						OFFSET -11.7543 0.0 0.0
						CHANNELS 6 Xposition Yposition Zposition Zrotation Xrotation Yrotation 
						End Site
						{
							OFFSET 0.0 0.0 0.0
						}
					}
				}
			}
		}
	}
}
MOTION
Frames:	5
Frame Time:	0.0333333
0.000000 0.000000 0.000000 0.000000 0.000000 -0.000000 -2.503850 92.897900 -0.892734 89.527900 0.269445 2.404930 15.735700 0.000005 -0.000001 89.009000 86.864000 -88.452000 8.984550 -0.406207 -0.000000 -1.494050 -0.153449 1.111630 16.377300 -0.000001 -0.000001 3.672520 -2.913160 1.418220 6.456720 -0.000001 -0.000000 7.629880 -2.832170 -3.781770 12.994200 -0.242716 4.980390 -89.219700 -2.591650 -73.237700 5.348090 -0.000007 -0.000001 -77.884000 -26.363200 -71.692500 24.328600 0.000019 0.000005 11.855300 -2.721400 -102.746000 22.291600 -0.000001 0.000005 16.685100 5.560630 -9.218540 12.994500 -0.242716 -4.980390 87.706500 7.498830 -72.939700 -5.348130 -0.000001 -0.000004 -63.613100 40.987500 -11.172400 -24.328900 0.000322 -0.000009 3.304040 9.441010 -19.395000 -22.291500 -0.000108 -0.000004 6.569340 5.357560 -1.605340 -2.192480 -6.469440 -0.000000 -176.031000 -6.299070 -1.746600 39.081100 -0.000007 -0.000012 -0.061589 0.206689 16.592800 40.985400 -0.000006 -0.000013 -1.174020 5.609840 -62.612500 11.754300 -0.000000 0.000003 -0.000001 -0.000021 -16.578300 -2.192510 6.469440 -0.000001 -179.815000 11.405800 179.864000 -39.081100 -0.002282 -0.040193 -0.051304 0.200288 15.257700 -40.985400 0.000008 0.000006 2.459950 5.998010 -63.276300 -11.754300 -0.000006 -0.000006 -0.006095 -0.071697 -19.491100
0.000000 0.000000 0.000000 0.000000 0.000000 -0.000000 -2.469770 92.907100 -0.896513 89.484300 0.107092 2.358940 15.735700 0.000005 -0.000001 89.375800 86.849100 -88.801800 8.984550 -0.406207 -0.000000 -1.463770 -0.114856 1.146210 16.377300 -0.000001 -0.000001 3.606330 -2.822030 1.362950 6.456720 -0.000001 -0.000000 7.597210 -2.718290 -3.797460 12.994200 -0.242716 4.980390 -89.263700 -2.431600 -73.147400 5.348090 -0.000007 -0.000001 -75.483800 -26.640400 -68.727900 24.328600 0.000019 0.000005 10.627700 -2.645900 -103.821000 22.291600 -0.000001 0.000005 16.684400 5.559170 -9.146550 12.994500 -0.242716 -4.980390 87.676200 7.558840 -72.855800 -5.348130 -0.000001 -0.000004 -63.435400 40.966000 -11.150300 -24.328900 0.000322 -0.000009 3.315690 9.438820 -19.462500 -22.291500 -0.000108 -0.000004 6.645670 5.356270 -1.566360 -2.192480 -6.469440 -0.000000 -176.003000 -6.401410 -1.745990 39.081100 -0.000007 -0.000012 -0.062045 0.208834 16.546600 40.985400 -0.000006 -0.000013 -1.167700 5.564510 -62.606200 11.754300 -0.000000 0.000003 -0.000002 -0.000031 -16.578700 -2.192510 6.469440 -0.000001 -179.788000 11.281300 179.865000 -39.081100 -0.002282 -0.040193 -0.050530 0.199114 15.136100 -40.985400 0.000008 0.000006 2.440470 6.091310 -63.199100 -11.754300 -0.000006 -0.000006 -0.006029 -0.071101 -19.466800
0.000000 0.000000 0.000000 0.000000 0.000000 -0.000000 -2.434920 92.907600 -0.908891 89.461600 -0.078900 2.276770 15.735700 0.000005 -0.000001 89.442600 86.828200 -88.855300 8.984550 -0.406207 -0.000000 -1.421940 -0.108782 1.172900 16.377300 -0.000001 -0.000001 3.499770 -2.733320 1.345930 6.456720 -0.000001 -0.000000 7.491040 -2.513220 -3.948930 12.994200 -0.242716 4.980390 -89.354300 -2.118930 -73.048400 5.348090 -0.000007 -0.000001 -72.124900 -26.625200 -64.312900 24.328600 0.000019 0.000005 10.336300 -2.832990 -105.163000 22.291600 -0.000001 0.000005 16.078100 5.555250 -8.955960 12.994500 -0.242716 -4.980390 87.657200 7.597760 -72.806300 -5.348130 -0.000001 -0.000004 -63.308900 40.917500 -11.285800 -24.328900 0.000322 -0.000009 3.303020 9.461820 -19.350300 -22.291500 -0.000108 -0.000004 6.655360 5.357050 -1.589770 -2.192480 -6.469440 -0.000000 -176.018000 -6.547630 -1.841080 39.081100 -0.000007 -0.000012 -0.062068 0.208318 16.591100 40.985400 -0.000006 -0.000013 -1.146050 5.489160 -62.629500 11.754300 -0.000000 0.000003 -0.000002 -0.000025 -16.578500 -2.192510 6.469440 -0.000001 -179.771000 11.198800 179.750000 -39.081100 -0.002282 -0.040193 -0.050896 0.200310 15.147400 -40.985400 0.000008 0.000006 2.426170 6.152050 -63.175900 -11.754300 -0.000006 -0.000006 -0.006054 -0.071323 -19.475900
0.000000 0.000000 0.000000 0.000000 0.000000 -0.000000 -2.371530 92.914300 -0.898391 89.482300 -0.322850 2.250510 15.735700 0.000005 -0.000001 90.218200 86.783500 -89.639100 8.984550 -0.406207 -0.000000 -1.332770 -0.021475 1.157540 16.377300 -0.000001 -0.000001 3.316160 -2.663010 1.434630 6.456720 -0.000001 -0.000000 7.384050 -2.355290 -4.139700 12.994200 -0.242716 4.980390 -89.514900 -1.579700 -72.925000 5.348090 -0.000007 -0.000001 -67.426600 -25.591800 -58.460000 24.328600 0.000019 0.000005 9.041140 -2.671600 -106.329000 22.291600 -0.000001 0.000005 15.464000 5.554880 -8.939620 12.994500 -0.242716 -4.980390 87.615600 7.669760 -72.672100 -5.348130 -0.000001 -0.000004 -63.205800 40.841100 -11.333400 -24.328900 0.000322 -0.000009 3.308520 9.429860 -19.440500 -22.291500 -0.000108 -0.000004 6.755340 5.356430 -1.570950 -2.192480 -6.469440 -0.000000 -176.084000 -6.742920 -1.775110 39.081100 -0.000007 -0.000012 -0.060556 0.204406 16.502100 40.985400 -0.000006 -0.000013 -1.107180 5.433030 -62.623300 11.754300 -0.000000 0.000003 -0.000003 -0.000038 -16.579000 -2.192510 6.469440 -0.000001 -179.831000 11.023900 179.715000 -39.081100 -0.002282 -0.040193 -0.050559 0.199217 15.136700 -40.985400 0.000008 0.000006 2.395630 6.261980 -63.149400 -11.754300 -0.000006 -0.000006 -0.005854 -0.069506 -19.401800
0.000000 0.000000 0.000000 0.000000 0.000000 -0.000000 -2.317840 92.916400 -0.872360 89.443500 -0.548370 2.234550 15.735700 0.000005 -0.000001 90.522500 86.748700 -89.935800 8.984550 -0.406207 -0.000000 -1.263450 0.013074 1.173130 16.377300 -0.000001 -0.000001 3.113010 -2.586540 1.530100 6.456720 -0.000001 -0.000000 7.375620 -2.165830 -4.256970 12.994200 -0.242716 4.980390 -89.708500 -0.935870 -72.697200 5.348090 -0.000007 -0.000001 -61.655600 -22.927500 -51.496600 24.328600 0.000019 0.000005 6.372430 -1.947560 -106.926000 22.291600 -0.000001 0.000005 14.762000 5.560400 -9.208490 12.994500 -0.242716 -4.980390 87.592000 7.733960 -72.646500 -5.348130 -0.000001 -0.000004 -63.259900 40.621400 -11.228900 -24.328900 0.000322 -0.000009 3.332330 9.420320 -19.588200 -22.291500 -0.000108 -0.000004 6.758250 5.355800 -1.552070 -2.192480 -6.469440 -0.000000 -176.088000 -6.753810 -1.739690 39.081100 -0.000007 -0.000012 -0.060454 0.204056 16.502500 40.985400 -0.000006 -0.000013 -1.099600 5.252570 -62.671200 11.754300 -0.000000 0.000003 -0.000001 -0.000016 -16.578100 -2.192510 6.469440 -0.000001 -179.831000 10.848000 179.736000 -39.081100 -0.002282 -0.040193 -0.050506 0.199890 15.073600 -40.985400 0.000008 0.000006 2.360370 6.338680 -63.116200 -11.754300 -0.000006 -0.000006 -0.006149 -0.072179 -19.510800
